<svg width="69" height="69" viewBox="0 0 69 69" fill="none" xmlns="http://www.w3.org/2000/svg">
<g filter="url(#filter0_d_5193_26557)">
<circle cx="34.5" cy="34.5" r="30.5" fill="white"/>
</g>
<path d="M38.6 24.2177L47.8139 39.5641C49.138 41.7682 48.4876 44.6681 46.3605 46.0403C45.647 46.5035 44.8145 46.75 43.9639 46.7498H25.5347C23.0309 46.7498 21 44.6461 21 42.0487C21 41.1701 21.2379 40.3107 21.6848 39.5641L30.9 24.2177C32.2227 22.0136 35.0195 21.3384 37.1466 22.7107C37.7351 23.0902 38.2329 23.6058 38.6 24.2177ZM34.75 41.2498C35.1147 41.2498 35.4644 41.1049 35.7223 40.8471C35.9801 40.5892 36.125 40.2395 36.125 39.8748C36.125 39.5101 35.9801 39.1604 35.7223 38.9025C35.4644 38.6447 35.1147 38.4998 34.75 38.4998C34.3853 38.4998 34.0356 38.6447 33.7777 38.9025C33.5199 39.1604 33.375 39.5101 33.375 39.8748C33.375 40.2395 33.5199 40.5892 33.7777 40.8471C34.0356 41.1049 34.3853 41.2498 34.75 41.2498ZM34.75 28.8748C34.3853 28.8748 34.0356 29.0197 33.7777 29.2775C33.5199 29.5354 33.375 29.8851 33.375 30.2498V35.7498C33.375 36.1145 33.5199 36.4642 33.7777 36.7221C34.0356 36.9799 34.3853 37.1248 34.75 37.1248C35.1147 37.1248 35.4644 36.9799 35.7223 36.7221C35.9801 36.4642 36.125 36.1145 36.125 35.7498V30.2498C36.125 29.8851 35.9801 29.5354 35.7223 29.2775C35.4644 29.0197 35.1147 28.8748 34.75 28.8748Z" fill="#D23F2D"/>
<defs>
<filter id="filter0_d_5193_26557" x="0" y="0" width="69" height="69" filterUnits="userSpaceOnUse" color-interpolation-filters="sRGB">
<feFlood flood-opacity="0" result="BackgroundImageFix"/>
<feColorMatrix in="SourceAlpha" type="matrix" values="0 0 0 0 0 0 0 0 0 0 0 0 0 0 0 0 0 0 127 0" result="hardAlpha"/>
<feOffset/>
<feGaussianBlur stdDeviation="2"/>
<feComposite in2="hardAlpha" operator="out"/>
<feColorMatrix type="matrix" values="0 0 0 0 0 0 0 0 0 0 0 0 0 0 0 0 0 0 0.25 0"/>
<feBlend mode="normal" in2="BackgroundImageFix" result="effect1_dropShadow_5193_26557"/>
<feBlend mode="normal" in="SourceGraphic" in2="effect1_dropShadow_5193_26557" result="shape"/>
</filter>
</defs>
</svg>
