<svg width="31" height="31" viewBox="0 0 31 31" fill="none" xmlns="http://www.w3.org/2000/svg">
<path d="M23.7344 0H7.26562C3.25293 0 0 3.25293 0 7.26562V23.7344C0 27.7471 3.25293 31 7.26562 31H23.7344C27.7471 31 31 27.7471 31 23.7344V7.26562C31 3.25293 27.7471 0 23.7344 0Z" fill="url(#paint0_radial_1350_55854)"/>
<path d="M23.7344 0H7.26562C3.25293 0 0 3.25293 0 7.26562V23.7344C0 27.7471 3.25293 31 7.26562 31H23.7344C27.7471 31 31 27.7471 31 23.7344V7.26562C31 3.25293 27.7471 0 23.7344 0Z" fill="url(#paint1_radial_1350_55854)"/>
<path d="M15.5011 3.39062C12.2124 3.39062 11.7996 3.40504 10.508 3.46377C9.21887 3.52286 8.33888 3.7269 7.56896 4.02637C6.77241 4.33564 6.09683 4.74942 5.42379 5.4227C4.75014 6.09586 4.33637 6.77144 4.02613 7.56763C3.72581 8.33779 3.52153 9.21814 3.46352 10.5067C3.40576 11.7984 3.39062 12.2113 3.39062 15.5001C3.39062 18.7889 3.40516 19.2004 3.46377 20.492C3.5231 21.7811 3.72714 22.6611 4.02637 23.431C4.33588 24.2276 4.74966 24.9032 5.42294 25.5762C6.09586 26.2499 6.77144 26.6646 7.56739 26.9739C8.33791 27.2733 9.21802 27.4774 10.5069 27.5365C11.7986 27.5952 12.2111 27.6096 15.4996 27.6096C18.7887 27.6096 19.2001 27.5952 20.4917 27.5365C21.7809 27.4774 22.6618 27.2733 23.4324 26.9739C24.2286 26.6646 24.9032 26.2499 25.576 25.5762C26.2496 24.9032 26.6633 24.2276 26.9736 23.4314C27.2713 22.6611 27.4757 21.7809 27.5362 20.4922C27.5942 19.2006 27.6094 18.7889 27.6094 15.5001C27.6094 12.2113 27.5942 11.7986 27.5362 10.5069C27.4757 9.21778 27.2713 8.33791 26.9736 7.568C26.6633 6.77144 26.2496 6.09586 25.576 5.4227C24.9024 4.74918 24.2288 4.3354 23.4316 4.02649C22.6597 3.7269 21.7792 3.52274 20.49 3.46377C19.1983 3.40504 18.7871 3.39062 15.4973 3.39062H15.5011ZM14.4148 5.57286C14.7372 5.57237 15.097 5.57286 15.5011 5.57286C18.7344 5.57286 19.1176 5.58448 20.3944 5.64248C21.575 5.69649 22.2159 5.89375 22.6427 6.05953C23.2079 6.27895 23.6107 6.54136 24.0343 6.96531C24.4582 7.38914 24.7204 7.79275 24.9405 8.35789C25.1062 8.78414 25.3038 9.42497 25.3575 10.6056C25.4155 11.8822 25.4281 12.2656 25.4281 15.4973C25.4281 18.7291 25.4155 19.1126 25.3575 20.389C25.3035 21.5697 25.1062 22.2105 24.9405 22.6369C24.721 23.202 24.4582 23.6044 24.0343 24.028C23.6105 24.4519 23.2081 24.7141 22.6427 24.9337C22.2163 25.1002 21.575 25.297 20.3944 25.351C19.1178 25.409 18.7344 25.4216 15.5011 25.4216C12.2676 25.4216 11.8844 25.409 10.6079 25.351C9.42727 25.2965 8.78644 25.0992 8.35922 24.9334C7.7942 24.7139 7.39047 24.4516 6.96664 24.0278C6.54282 23.604 6.28053 23.2013 6.0605 22.6359C5.89472 22.2096 5.69722 21.5687 5.64345 20.3881C5.58545 19.1115 5.57382 18.7281 5.57382 15.4943C5.57382 12.2605 5.58545 11.8792 5.64345 10.6026C5.69746 9.42194 5.89472 8.78111 6.0605 8.35426C6.28004 7.78911 6.54282 7.38551 6.96677 6.96168C7.39072 6.53785 7.7942 6.27544 8.35934 6.05554C8.7862 5.88903 9.42727 5.69225 10.6079 5.638C11.725 5.58751 12.1579 5.57237 14.4148 5.56983V5.57286ZM21.9651 7.5835C21.1628 7.5835 20.5119 8.23377 20.5119 9.03614C20.5119 9.83838 21.1628 10.4893 21.9651 10.4893C22.7673 10.4893 23.4182 9.83838 23.4182 9.03614C23.4182 8.23389 22.7673 7.58301 21.9651 7.58301V7.5835ZM15.5011 9.28135C12.0669 9.28135 9.28244 12.0658 9.28244 15.5001C9.28244 18.9345 12.0669 21.7176 15.5011 21.7176C18.9354 21.7176 21.7189 18.9345 21.7189 15.5001C21.7189 12.0659 18.9352 9.28135 15.5008 9.28135H15.5011ZM15.5011 11.4636C17.7303 11.4636 19.5376 13.2707 19.5376 15.5001C19.5376 17.7293 17.7303 19.5367 15.5011 19.5367C13.2719 19.5367 11.4647 17.7293 11.4647 15.5001C11.4647 13.2707 13.2718 11.4636 15.5011 11.4636Z" fill="white"/>
<defs>
<radialGradient id="paint0_radial_1350_55854" cx="0" cy="0" r="1" gradientUnits="userSpaceOnUse" gradientTransform="translate(8.23437 33.3876) rotate(-90) scale(30.7233 28.5751)">
<stop stop-color="#FFDD55"/>
<stop offset="0.1" stop-color="#FFDD55"/>
<stop offset="0.5" stop-color="#FF543E"/>
<stop offset="1" stop-color="#C837AB"/>
</radialGradient>
<radialGradient id="paint1_radial_1350_55854" cx="0" cy="0" r="1" gradientUnits="userSpaceOnUse" gradientTransform="translate(-5.19262 2.23309) rotate(78.681) scale(13.7335 56.6099)">
<stop stop-color="#3771C8"/>
<stop offset="0.128" stop-color="#3771C8"/>
<stop offset="1" stop-color="#6600FF" stop-opacity="0"/>
</radialGradient>
</defs>
</svg>
