<svg width="39" height="39" viewBox="0 0 39 39" fill="none" xmlns="http://www.w3.org/2000/svg">
<g clip-path="url(#clip0_3394_22095)">
<path d="M0.832695 19.2665C0.831781 22.5432 1.69466 25.7427 3.3354 28.5628L0.675781 38.1983L10.6135 35.6128C13.3621 37.0975 16.4417 37.8754 19.5713 37.8757H19.5795C29.9107 37.8757 38.3205 29.5341 38.3249 19.2811C38.3269 14.3129 36.3788 9.64104 32.8392 6.1262C29.3003 2.61167 24.5936 0.675119 19.5787 0.672852C9.24634 0.672852 0.837113 9.01401 0.832848 19.2665" fill="url(#paint0_linear_3394_22095)"/>
<path d="M0.163008 19.2606C0.161941 22.6552 1.05574 25.9692 2.75498 28.8902L0 38.8711L10.294 36.1929C13.1304 37.7274 16.3238 38.5364 19.5733 38.5376H19.5817C30.2835 38.5376 38.9954 29.8959 39 19.276C39.0018 14.1292 36.9836 9.28941 33.3176 5.64865C29.6511 2.00835 24.7761 0.00211628 19.5817 0C8.87798 0 0.167273 8.64046 0.163008 19.2606ZM6.29347 28.3872L5.90911 27.7818C4.29335 25.2325 3.44053 22.2867 3.44175 19.2618C3.4451 10.4346 10.6851 3.25302 19.5878 3.25302C23.8991 3.25484 27.9508 4.92246 30.9983 7.94814C34.0456 10.9741 35.7225 14.9966 35.7214 19.2748C35.7174 28.1019 28.4773 35.2844 19.5817 35.2844H19.5753C16.6787 35.2829 13.838 34.5111 11.3606 33.0525L10.771 32.7056L4.66233 34.2948L6.29347 28.3872Z" fill="url(#paint1_linear_3394_22095)"/>
<path d="M14.7285 11.2083C14.365 10.4067 13.9824 10.3905 13.6368 10.3764C13.3537 10.3643 13.0301 10.3652 12.7069 10.3652C12.3833 10.3652 11.8576 10.486 11.4132 10.9675C10.9683 11.4494 9.71484 12.6139 9.71484 14.9825C9.71484 17.3511 11.4535 19.6403 11.6959 19.9618C11.9386 20.2827 15.0525 25.2989 19.9842 27.2287C24.0828 28.8324 24.9169 28.5134 25.8065 28.433C26.6961 28.3529 28.6772 27.2687 29.0814 26.1445C29.4859 25.0205 29.4859 24.057 29.3646 23.8556C29.2433 23.655 28.9198 23.5346 28.4345 23.2939C27.9493 23.0532 25.5638 21.8884 25.1191 21.7277C24.6742 21.5672 24.3508 21.4871 24.0272 21.9691C23.7037 22.4504 22.7745 23.5346 22.4913 23.8556C22.2084 24.1774 21.9252 24.2175 21.4401 23.9767C20.9546 23.7351 19.392 23.2274 17.5382 21.5874C16.0958 20.3113 15.122 18.7354 14.8389 18.2534C14.5559 17.7721 14.8086 17.5112 15.0519 17.2713C15.2699 17.0556 15.5373 16.7091 15.7801 16.4281C16.022 16.1469 16.1028 15.9463 16.2646 15.6253C16.4265 15.3039 16.3455 15.0227 16.2243 14.7819C16.1028 14.5411 15.1599 12.1602 14.7285 11.2083Z" fill="white"/>
</g>
<defs>
<linearGradient id="paint0_linear_3394_22095" x1="1883.13" y1="3753.21" x2="1883.13" y2="0.672852" gradientUnits="userSpaceOnUse">
<stop stop-color="#1FAF38"/>
<stop offset="1" stop-color="#60D669"/>
</linearGradient>
<linearGradient id="paint1_linear_3394_22095" x1="1950" y1="3887.11" x2="1950" y2="0" gradientUnits="userSpaceOnUse">
<stop stop-color="#F9F9F9"/>
<stop offset="1" stop-color="white"/>
</linearGradient>
<clipPath id="clip0_3394_22095">
<rect width="39" height="39" fill="white"/>
</clipPath>
</defs>
</svg>
