<svg width="35" height="25" viewBox="0 0 35 25" fill="none" xmlns="http://www.w3.org/2000/svg">
<g clip-path="url(#clip0_1350_55860)">
<path d="M34.227 3.89931C34.0263 3.14563 33.6347 2.45853 33.0912 1.90643C32.5478 1.35432 31.8714 0.956474 31.1295 0.7525C28.4135 0 17.4823 0 17.4823 0C17.4823 0 6.5505 0.0227777 3.83444 0.775278C3.09254 0.979264 2.41618 1.37713 1.87272 1.92926C1.32927 2.4814 0.937674 3.16852 0.73694 3.92222C-0.0846026 8.82472 -0.403294 16.295 0.759499 21.0014C0.960253 21.7551 1.35186 22.4422 1.89531 22.9943C2.43877 23.5464 3.11511 23.9442 3.857 24.1482C6.57305 24.9007 17.5045 24.9007 17.5045 24.9007C17.5045 24.9007 28.4359 24.9007 31.1518 24.1482C31.8937 23.9442 32.5701 23.5464 33.1136 22.9943C33.6571 22.4422 34.0487 21.7551 34.2494 21.0014C35.116 16.0919 35.383 8.62625 34.227 3.89931Z" fill="#FF0000"/>
<path d="M14.0039 17.7849L23.0722 12.4491L14.0039 7.11328V17.7849Z" fill="white"/>
</g>
<defs>
<clipPath id="clip0_1350_55860">
<rect width="35" height="25" fill="white"/>
</clipPath>
</defs>
</svg>
