<svg width="69" height="69" viewBox="0 0 69 69" fill="none" xmlns="http://www.w3.org/2000/svg">
<g filter="url(#filter0_d_3328_23921)">
<circle cx="34.5" cy="34.5" r="30.5" fill="white"/>
</g>
<path d="M33.9345 52.784C44.3032 52.784 52.7088 44.3784 52.7088 34.0097C52.7088 23.6409 44.3032 15.2354 33.9345 15.2354C23.5657 15.2354 15.1602 23.6409 15.1602 34.0097C15.1602 44.3784 23.5657 52.784 33.9345 52.784Z" fill="#DFBDEF"/>
<path d="M34.0046 49.2143C42.3928 49.2143 49.1928 42.4143 49.1928 34.0261C49.1928 25.6379 42.3928 18.8379 34.0046 18.8379C25.6164 18.8379 18.8164 25.6379 18.8164 34.0261C18.8164 42.4143 25.6164 49.2143 34.0046 49.2143Z" fill="white"/>
<path d="M47.2703 26.6248C49.061 29.8352 49.6261 33.5863 48.8607 37.1818C48.0952 40.7773 46.0513 43.973 43.1083 46.1757C40.1652 48.3785 36.5229 49.4386 32.8575 49.1593C29.192 48.8801 25.7523 47.2804 23.1769 44.6573C20.6015 42.0342 19.0653 38.5657 18.8534 34.8958C18.6415 31.2258 19.7683 27.6036 22.0247 24.7015C24.281 21.7993 27.5137 19.8144 31.1227 19.1151C34.7316 18.4159 38.4717 19.0497 41.6488 20.8991" stroke="black" stroke-width="0.5" stroke-linecap="round" stroke-linejoin="round"/>
<path d="M52.7084 33.998C52.7079 38.4649 51.1154 42.7853 48.2168 46.1839C45.3181 49.5825 41.3031 51.8368 36.8923 52.5421C32.4814 53.2475 27.9636 52.3577 24.1497 50.0325C20.3357 47.7073 17.4753 44.099 16.0818 39.855C14.6884 35.6111 14.853 31.0095 16.5463 26.876C18.2396 22.7425 21.3507 19.3479 25.3211 17.3013C29.2915 15.2547 33.8614 14.6901 38.2105 15.709C42.5596 16.7278 46.4032 19.2634 49.0515 22.8605" stroke="black" stroke-width="0.5" stroke-linecap="round" stroke-linejoin="round"/>
<path d="M41.9114 23.9845L49.5767 23.1789L48.7711 15.5137M43.7037 34.2456H33.9232V21.8609M33.9232 46.438V43.7678M23.6815 34.2456H21.5586" stroke="black" stroke-width="0.5" stroke-linecap="round" stroke-linejoin="round"/>
<path d="M33.9233 36.8407C35.3565 36.8407 36.5184 35.6788 36.5184 34.2455C36.5184 32.8123 35.3565 31.6504 33.9233 31.6504C32.49 31.6504 31.3281 32.8123 31.3281 34.2455C31.3281 35.6788 32.49 36.8407 33.9233 36.8407Z" fill="black"/>
<path d="M42.8168 43.3173C43.3845 43.3173 43.8446 42.8571 43.8446 42.2895C43.8446 41.7219 43.3845 41.2617 42.8168 41.2617C42.2492 41.2617 41.7891 41.7219 41.7891 42.2895C41.7891 42.8571 42.2492 43.3173 42.8168 43.3173Z" fill="black"/>
<path d="M25.0317 27.1923C25.5993 27.1923 26.0595 26.7321 26.0595 26.1645C26.0595 25.5969 25.5993 25.1367 25.0317 25.1367C24.4641 25.1367 24.0039 25.5969 24.0039 26.1645C24.0039 26.7321 24.4641 27.1923 25.0317 27.1923Z" fill="black"/>
<path d="M25.0317 43.3173C25.5993 43.3173 26.0595 42.8571 26.0595 42.2895C26.0595 41.7219 25.5993 41.2617 25.0317 41.2617C24.4641 41.2617 24.0039 41.7219 24.0039 42.2895C24.0039 42.8571 24.4641 43.3173 25.0317 43.3173Z" fill="black"/>
<defs>
<filter id="filter0_d_3328_23921" x="0" y="0" width="69" height="69" filterUnits="userSpaceOnUse" color-interpolation-filters="sRGB">
<feFlood flood-opacity="0" result="BackgroundImageFix"/>
<feColorMatrix in="SourceAlpha" type="matrix" values="0 0 0 0 0 0 0 0 0 0 0 0 0 0 0 0 0 0 127 0" result="hardAlpha"/>
<feOffset/>
<feGaussianBlur stdDeviation="2"/>
<feComposite in2="hardAlpha" operator="out"/>
<feColorMatrix type="matrix" values="0 0 0 0 0 0 0 0 0 0 0 0 0 0 0 0 0 0 0.25 0"/>
<feBlend mode="normal" in2="BackgroundImageFix" result="effect1_dropShadow_3328_23921"/>
<feBlend mode="normal" in="SourceGraphic" in2="effect1_dropShadow_3328_23921" result="shape"/>
</filter>
</defs>
</svg>
