<svg width="69" height="69" viewBox="0 0 69 69" fill="none" xmlns="http://www.w3.org/2000/svg">
<g filter="url(#filter0_d_5193_26556)">
<circle cx="34.5" cy="34.5" r="30.5" fill="white"/>
</g>
<path fill-rule="evenodd" clip-rule="evenodd" d="M33.1675 21.3492C33.4828 20.7909 33.9811 20.3667 34.5728 20.1529C35.1645 19.9391 35.8108 19.9498 36.3955 20.183C36.9803 20.4162 37.4651 20.8566 37.7629 21.4251C38.0607 21.9936 38.1519 22.6529 38.0201 23.2844L36.6609 29.8353H44.1823C44.7708 29.8353 45.3513 29.9755 45.8785 30.2449C46.4058 30.5143 46.8654 30.9057 47.2215 31.3883C47.5777 31.871 47.8207 32.4319 47.9316 33.0274C48.0425 33.6228 48.0183 34.2366 47.8609 34.8208L46.1829 41.0393C45.6955 42.8488 44.5958 44.419 43.0826 45.4661C41.5694 46.5132 39.7426 46.9681 37.9323 46.7485L28.2041 45.5685L27.2496 31.802L33.1675 21.3492ZM24.8615 32.6811C24.8515 32.4854 24.8038 32.2937 24.7211 32.1172C24.6384 31.9407 24.5224 31.783 24.3799 31.6532C24.2373 31.5235 24.0711 31.4243 23.891 31.3614C23.7108 31.2986 23.5203 31.2733 23.3305 31.2872C23.1408 31.301 22.9556 31.3537 22.7859 31.4421C22.6161 31.5305 22.4652 31.6528 22.3418 31.802C22.2185 31.9512 22.1252 32.1242 22.0675 32.3109C22.0098 32.4976 21.9888 32.6943 22.0057 32.8895L22.9602 46.6561C22.9935 47.0411 23.1722 47.3972 23.4578 47.6479C23.7434 47.8985 24.1132 48.0236 24.4874 47.9963C24.8617 47.969 25.2106 47.7914 25.459 47.5018C25.7075 47.2121 25.8357 46.8336 25.816 46.4476L24.8615 32.6811Z" fill="#6F4085"/>
<defs>
<filter id="filter0_d_5193_26556" x="0" y="0" width="69" height="69" filterUnits="userSpaceOnUse" color-interpolation-filters="sRGB">
<feFlood flood-opacity="0" result="BackgroundImageFix"/>
<feColorMatrix in="SourceAlpha" type="matrix" values="0 0 0 0 0 0 0 0 0 0 0 0 0 0 0 0 0 0 127 0" result="hardAlpha"/>
<feOffset/>
<feGaussianBlur stdDeviation="2"/>
<feComposite in2="hardAlpha" operator="out"/>
<feColorMatrix type="matrix" values="0 0 0 0 0 0 0 0 0 0 0 0 0 0 0 0 0 0 0.25 0"/>
<feBlend mode="normal" in2="BackgroundImageFix" result="effect1_dropShadow_5193_26556"/>
<feBlend mode="normal" in="SourceGraphic" in2="effect1_dropShadow_5193_26556" result="shape"/>
</filter>
</defs>
</svg>
