<svg width="22" height="22" viewBox="0 0 22 22" fill="none" xmlns="http://www.w3.org/2000/svg">
<path d="M14.7335 4.36238C14.7232 4.30051 14.3021 0.696289 10.5518 0.696289C10.2699 0.696289 9.96915 0.716914 9.64947 0.759883C5.59494 1.31332 5.79603 5.0516 5.78915 5.76832C5.78228 6.48504 6.1604 12.3546 6.82556 13.6436C7.08681 14.1472 7.77431 14.2779 8.41712 14.2779C9.10806 14.2779 9.74744 14.1266 9.74744 14.1266L11.6398 13.8258L13.1162 13.5955C13.1162 13.5955 13.9188 13.4563 14.2574 12.7843C15.1151 11.093 15.1649 7.10035 14.7335 4.36238Z" fill="#543930"/>
<path d="M14.7335 4.36238C14.7232 4.30051 14.3021 0.696289 10.5518 0.696289C10.2699 0.696289 9.96915 0.716914 9.64947 0.759883C5.59494 1.31332 5.79603 5.0516 5.78915 5.76832C5.78228 6.48504 6.1604 12.3546 6.82556 13.6436C7.08681 14.1472 7.77431 14.2779 8.41712 14.2779C9.10806 14.2779 9.74744 14.1266 9.74744 14.1266L11.6398 13.8258L13.1162 13.5955C13.1162 13.5955 13.9188 13.4563 14.2574 12.7843C15.1151 11.093 15.1649 7.10035 14.7335 4.36238Z" fill="url(#paint0_radial_3328_24418)"/>
<path d="M17.4044 21.3056C16.6602 21.3056 10.4504 21.3125 9.6202 21.3125C8.79005 21.3125 8.2263 21.2454 7.96677 21.1973C6.74989 20.9756 5.42989 20.7625 4.4227 20.0664C3.6527 19.5353 2.85348 18.5487 3.65098 16.8042C4.76302 14.2398 5.73755 11.7098 8.01661 11.3867C8.77973 11.2784 9.90208 11.2904 11.1619 11.2904C12.4218 11.2904 13.2519 11.4984 13.7779 11.6136C17.5333 12.4368 17.6915 15.3914 18.0352 18.6054C18.0352 18.6054 18.3291 21.3056 17.4044 21.3056Z" fill="url(#paint1_linear_3328_24418)"/>
<path d="M11.1308 10.2285H9.89844V11.5829C9.89844 12.1948 10.4003 12.6915 11.0191 12.6915H11.2425C11.8613 12.6915 12.3631 12.1948 12.3631 11.5829V10.2285H11.1308Z" fill="#E59600"/>
<path d="M14.1073 5.80207C13.5624 3.11051 11.8557 1.98301 10.1353 2.06035C9.93932 2.06895 9.74338 2.09301 9.54745 2.13254C7.64479 2.51926 6.1701 4.29129 6.78026 7.29223C7.2701 9.70192 9.05245 10.8243 10.4429 11.0202C10.6389 11.0477 10.8245 11.0563 10.9998 11.0494C11.1235 11.0443 11.2404 11.0305 11.3487 11.0082C11.6134 10.9549 11.8987 10.8397 12.184 10.6679C13.3906 9.94598 14.5971 8.2152 14.1073 5.80207Z" fill="#FFCA28"/>
<path d="M9.33358 6.02208C9.20811 5.90177 8.93827 5.74021 8.47421 5.81239C8.01014 5.88458 7.80217 6.12177 7.72139 6.27474C7.6853 6.34177 7.70764 6.41052 7.74546 6.44833C7.78155 6.48271 7.87264 6.50505 7.96374 6.45864C8.05483 6.41224 8.22671 6.28505 8.53952 6.23349C8.85405 6.18708 9.05686 6.25411 9.15655 6.2713C9.25624 6.28849 9.33874 6.23864 9.36108 6.19568C9.38858 6.14755 9.38858 6.07536 9.33358 6.02208ZM12.9567 5.45318C12.8312 5.33286 12.5614 5.1713 12.0973 5.24349C11.6333 5.31568 11.4253 5.55286 11.3445 5.70583C11.3084 5.77286 11.3308 5.84161 11.3686 5.87943C11.4047 5.9138 11.4975 5.93614 11.5869 5.88974C11.6762 5.84333 11.8498 5.71614 12.1626 5.66458C12.4772 5.61818 12.68 5.68521 12.7797 5.70239C12.8811 5.71958 12.9619 5.66974 12.9842 5.62677C13.0117 5.57693 13.0117 5.50646 12.9567 5.45318Z" fill="#6D4C41"/>
<path d="M11.7273 8.65341C11.4093 8.91638 10.2595 9.09857 9.87446 8.94388C9.65446 8.85622 9.47743 9.07107 9.58915 9.24122C9.69915 9.40794 10.3935 9.72763 10.9349 9.64169C11.4781 9.55576 12.0315 9.04185 12.0848 8.84763C12.1432 8.65341 11.9112 8.50216 11.7273 8.65341Z" fill="#795548"/>
<path d="M11.0519 7.60891C11.0399 7.60547 11.0278 7.60547 11.0158 7.60547L10.2372 7.7275C10.2252 7.73094 10.2149 7.73609 10.2028 7.74125C10.1375 7.78078 10.11 7.85984 10.1547 7.93375C10.1994 8.00766 10.3902 8.20016 10.703 8.15203C11.0158 8.10219 11.1361 7.85984 11.1567 7.77563C11.1774 7.69313 11.1275 7.62609 11.0519 7.60891Z" fill="#E59600"/>
<path d="M8.6998 7.32192C8.47121 7.35802 8.25637 7.33396 8.09996 7.26864C8.03293 7.23943 8.00027 7.26864 8.02262 7.33739C8.10855 7.60724 8.42309 7.77739 8.7634 7.72411C9.10371 7.67083 9.35121 7.41302 9.34949 7.12943C9.34949 7.05724 9.30996 7.03833 9.25496 7.08646C9.12605 7.19646 8.93012 7.28411 8.6998 7.32192ZM12.3367 6.74958C12.1081 6.78568 11.8932 6.76161 11.7368 6.6963C11.6698 6.66708 11.6371 6.6963 11.6595 6.76505C11.7454 7.03489 12.06 7.20505 12.4003 7.15177C12.7406 7.09849 12.9881 6.84068 12.9864 6.55708C12.9864 6.48489 12.9468 6.46771 12.8918 6.51411C12.7629 6.62411 12.567 6.71349 12.3367 6.74958Z" fill="#404040"/>
<path d="M17.4839 18.7892C16.4303 16.9037 16.133 16.6305 15.9852 16.3005C15.7394 15.7487 15.4936 15.5305 15.3097 15.4514C15.2891 15.2417 15.2375 14.9891 15.1671 14.6814C15.2753 14.6075 15.3596 14.5044 15.4094 14.3806C15.473 14.2191 15.4696 14.042 15.4008 13.8822L14.8646 12.6533C14.7958 12.4934 9.27518 14.8533 9.27518 14.8533C9.09471 15.1541 9.02596 15.4187 9.25284 15.9137C9.38518 16.2025 9.68768 16.4362 9.75127 16.4087L10.2686 16.2128C10.3408 16.3194 10.4439 16.4019 10.5677 16.45C10.6158 16.4689 10.81 16.5205 11.0661 16.4414L12.4119 15.8691C12.5975 16.1423 12.876 16.1733 13.0581 16.1578C13.0581 16.1578 13.2025 16.5927 13.5875 16.7852C13.4071 17.0687 13.7096 17.5964 13.8797 17.9333C14.1427 18.4523 13.5583 20.3877 13.7646 21.3106L17.4066 21.3278C17.6919 20.7486 17.9892 19.6916 17.4839 18.7892Z" fill="url(#paint2_linear_3328_24418)"/>
<path d="M15.9557 13.3307L15.4194 12.1018C15.3507 11.942 15.2218 11.82 15.0602 11.7564C14.8987 11.6928 14.7216 11.6962 14.5618 11.765L10.5622 13.4665C10.4044 13.5357 10.2803 13.6646 10.2172 13.825C10.1541 13.9854 10.157 14.1642 10.2254 14.3225L10.7616 15.5514C10.8304 15.7112 10.9593 15.8332 11.1208 15.8968C11.169 15.9157 11.2171 15.9278 11.2669 15.9364C11.3855 15.9536 11.5058 15.9364 11.6193 15.8882L15.6188 14.1867C15.7787 14.1179 15.9007 13.989 15.9643 13.8275C16.0296 13.6659 16.0262 13.4906 15.9557 13.3307Z" fill="url(#paint3_linear_3328_24418)"/>
<path d="M10.4383 13.542C10.2149 13.6468 10.1066 14.0095 10.2132 14.2518L10.8268 15.6612C10.9333 15.9036 11.3768 16.0101 11.6191 15.9036L15.6221 14.1865L10.4383 13.542Z" fill="#FFFDE7"/>
<path d="M9.91887 14.6356C10.0014 14.6133 10.1096 14.6236 10.1595 14.6906C10.2162 14.768 10.2557 14.89 10.297 14.9794C10.3675 15.1341 10.4139 15.2956 10.4104 15.4658C10.4104 15.4847 10.4087 15.5071 10.3932 15.5208C10.3829 15.5311 10.3675 15.5346 10.352 15.538C10.2592 15.5569 10.1629 15.5638 10.0684 15.5603C9.87934 15.5535 9.77965 15.3867 9.72121 15.2235C9.68512 15.1203 9.66793 15.0103 9.68855 14.9038C9.7109 14.7972 9.77621 14.6975 9.87246 14.6494C9.88793 14.646 9.90168 14.6408 9.91887 14.6356Z" fill="#C53929"/>
<path d="M10.826 15.6616L10.6369 15.7441C10.5097 15.7991 10.3516 15.7681 10.2588 15.665C10.1694 15.5653 10.1763 15.4295 10.1574 15.3006C10.1333 15.1322 10.0732 14.9792 9.96144 14.8727C9.92879 14.8417 9.88926 14.8159 9.85832 14.7833C9.7191 14.6338 9.83769 14.3639 10.0027 14.2917L10.1918 14.2092C10.3722 14.1302 10.7022 14.2831 10.8982 14.7592C11.0941 15.2319 11.0064 15.5825 10.826 15.6616Z" fill="#E06055"/>
<path d="M9.45337 16.0207C9.34853 16.9075 8.61462 17.6638 7.76728 17.8924C6.87009 18.1364 5.74087 17.6191 5.18571 16.8422C4.14931 15.395 5.25618 14.1902 5.49337 13.9203C6.08462 13.25 6.95775 13.2621 7.64868 13.305C9.06493 13.3927 9.59774 14.8124 9.45337 16.0207Z" fill="#C5E1A5"/>
<path d="M7.41781 13.0265C7.06031 13.03 6.51375 13.0626 6.12703 13.2895C5.95344 13.3926 5.89844 13.5714 5.89844 13.5714C6.3625 13.3943 6.83172 13.3617 7.41266 13.5748C8.50406 13.9753 8.68797 14.9 8.59516 16.0618C8.52812 16.9023 7.97125 17.5829 7.29406 17.7995C6.97781 17.9009 7.00531 18.0539 7.41781 18.0831C8.90453 18.1862 9.94609 16.9504 9.94609 15.5548C9.94609 14.1592 9.01453 13.0111 7.41781 13.0265Z" fill="#FEF6E0"/>
<path d="M10.0564 16.543C12.1842 16.7475 12.7995 17.9386 12.7995 17.9386C14.9325 18.4113 15.4911 19.8292 15.3209 20.472C15.3209 20.472 14.3447 21.0461 13.7362 21.0581C12.858 21.077 11.9762 21.0856 11.1014 21.0461C11.1014 21.0461 11.2355 20.0733 10.9158 19.7914C10.7216 19.6213 10.3864 19.7931 10.0633 19.6023C9.52188 19.2827 8.69516 18.7928 8.00078 18.4164C7.30984 18.0417 6.70312 17.8716 6.70312 17.8716C7.32016 17.1531 8.42531 16.3866 10.0564 16.543Z" fill="#BDBDBD"/>
<path d="M4.92287 14.7812C4.92287 14.7812 5.08443 15.9277 6.16553 16.1459C7.64709 16.445 8.62678 15.7352 8.62678 15.7352C8.62678 15.7352 8.7299 15.9156 9.00834 15.8486C9.23178 15.7953 9.69756 15.675 9.79896 15.5048C9.93474 15.2797 9.91068 15.0838 9.91068 15.0838C9.90381 15.1628 9.93131 15.2573 9.93474 15.3381C9.94506 15.553 9.93646 15.7713 9.90381 15.9844C9.87115 16.2009 9.76115 16.5206 9.76115 16.5206C9.45006 16.6066 9.14928 16.9864 9.3349 17.502C9.7474 18.6381 10.8577 19.3067 11.9749 19.2397C12.4562 19.2105 12.9271 19.1005 13.398 19.0025C13.4805 18.9853 13.594 18.9492 13.6421 19.0162C13.8346 19.2844 13.386 19.733 13.2605 19.8687C14.1955 20.3655 15.2251 19.8911 15.2697 19.898C15.3144 19.9048 14.7472 20.5305 13.7022 20.5305C13.2072 20.5305 12.738 20.3397 12.2637 20.2159C11.7996 20.0939 11.2358 20.2314 10.9557 19.8395C10.7855 19.6023 10.3782 19.7863 10.0826 19.6178C9.50162 19.2844 8.13521 18.4405 7.48209 18.1672C6.92521 17.9352 6.80662 17.9025 6.59006 17.8423C5.88709 17.6464 5.24428 18.138 4.70803 17.4144C4.40724 17.0087 4.89021 16.3195 4.89021 16.3195C4.56365 15.5341 4.92287 14.7812 4.92287 14.7812Z" fill="url(#paint4_linear_3328_24418)"/>
<path d="M14.3278 16.0911C13.826 16.2853 14.2282 16.9745 14.4344 17.3819C14.7369 17.9765 14.9569 19.6867 15.3574 20.369C15.9039 21.3006 17.3511 21.5636 17.9785 21.115C18.4975 20.7437 18.6746 19.3687 18.0421 18.2361C16.9885 16.3506 16.6911 16.0773 16.5433 15.7473C16.0552 14.6508 15.5653 14.8742 15.5653 14.8742L14.3278 16.0911Z" fill="url(#paint5_linear_3328_24418)"/>
<path d="M15.4825 20.0596C15.4825 19.9496 15.443 19.8293 15.1748 19.9359C14.4959 20.2057 13.9597 20.3999 13.1948 20.0974C13.2756 20.1679 14.2175 19.3738 13.6675 18.9785C13.432 18.8943 12.9336 19.4409 12.4403 19.477C11.9453 19.4581 11.342 19.4478 10.9141 19.886L10.7422 21.3109C11.1822 21.3109 13.2739 21.3745 14.0937 21.261C14.5767 21.1356 15.3759 20.7488 15.4825 20.0596Z" fill="url(#paint6_linear_3328_24418)"/>
<path d="M13.5794 12.0259C13.4264 12.0036 13.1428 12.0122 13.0878 12.1549C12.9778 12.435 13.2803 12.5931 13.4832 12.6447C13.7994 12.7255 14.1449 12.7942 14.1449 12.7942L14.4405 13.2978C14.4405 13.2978 13.7925 13.1105 13.4952 13.1036C13.1171 13.095 12.6513 13.2944 12.3694 13.4113C12.0205 13.5539 12.2732 13.9492 12.6444 13.9424C12.9589 13.9355 13.3216 13.7963 13.3216 13.7963L13.7599 13.9681C13.5742 13.9802 13.0707 14.0163 12.9658 14.317C12.8507 14.6488 13.0655 14.9255 13.0655 14.9255C13.0655 14.9255 12.9314 15.1025 13.0655 15.3878C13.1738 15.6164 13.4986 15.8003 13.8097 15.8055C13.9696 16.3005 14.3924 16.3916 14.633 16.3881C15.1435 16.383 15.5628 16.0684 15.745 15.7006C15.9616 15.2606 16.0149 14.6745 15.6247 13.7928C15.3961 13.2772 15.0008 12.4677 14.6571 12.3044C14.2325 12.1033 14.181 12.117 13.5794 12.0259Z" fill="url(#paint7_linear_3328_24418)"/>
<path d="M13.5575 15.7646C13.6383 15.7887 13.7225 15.8041 13.8067 15.8059C13.872 16.0104 13.9837 16.1427 14.1092 16.2321C14.0611 16.1788 13.9752 16.0224 13.9666 15.988C13.9184 15.7698 13.9614 15.677 14.0319 15.5446C14.1023 15.4123 14.0989 15.3177 14.0456 15.2765C13.982 15.2266 13.695 15.3212 13.628 15.3263C13.628 15.3263 13.817 15.5085 13.7362 15.646C13.695 15.7113 13.6228 15.7474 13.5575 15.7646ZM13.0625 14.9259C13.0625 14.9259 13.365 14.5907 14.1109 14.6388C14.1109 14.6388 13.8841 14.4841 13.5575 14.5271C13.1742 14.5787 13.0625 14.9259 13.0625 14.9259ZM13.7569 13.9668L14.2072 13.9616C14.2072 13.9616 13.9133 13.8585 13.7448 13.8276C13.5764 13.7984 13.3186 13.7949 13.3186 13.7949L13.7569 13.9668Z" fill="#EDA600"/>
<path d="M14.4391 4.84193C14.3429 3.97225 13.6812 0.567402 9.606 1.126C5.82475 1.64506 6.13413 5.43662 6.18225 6.28568C6.21835 6.92162 6.30428 8.17459 6.39194 8.87412C6.48303 9.60975 7.24788 9.76787 7.24788 9.76787C7.24788 9.76787 7.24444 8.69193 7.1946 7.65725C7.14991 6.73943 7.1585 5.98146 7.57444 5.82678C9.9996 4.92787 11.1821 3.32943 11.1821 3.32943C11.6754 4.07365 12.9455 4.6735 13.4044 4.90553C13.7808 5.09631 13.8926 6.10865 13.9527 6.53662L13.8341 9.59428C13.8341 9.59428 14.5818 9.13881 14.6333 8.38428C14.6832 7.69162 14.5354 5.71162 14.4391 4.84193Z" fill="#543930"/>
<path d="M14.4391 4.84193C14.3429 3.97225 13.6812 0.567402 9.606 1.126C5.82475 1.64506 6.13413 5.43662 6.18225 6.28568C6.21835 6.92162 6.30428 8.17459 6.39194 8.87412C6.48303 9.60975 7.24788 9.76787 7.24788 9.76787C7.24788 9.76787 7.24444 8.69193 7.1946 7.65725C7.14991 6.73943 7.1585 5.98146 7.57444 5.82678C9.9996 4.92787 11.1821 3.32943 11.1821 3.32943C11.6754 4.07365 12.9455 4.6735 13.4044 4.90553C13.7808 5.09631 13.8926 6.10865 13.9527 6.53662L13.8341 9.59428C13.8341 9.59428 14.5818 9.13881 14.6333 8.38428C14.6832 7.69162 14.5354 5.71162 14.4391 4.84193Z" fill="url(#paint8_radial_3328_24418)"/>
<defs>
<radialGradient id="paint0_radial_3328_24418" cx="0" cy="0" r="1" gradientUnits="userSpaceOnUse" gradientTransform="translate(10.4954 7.2945) rotate(-93.5431) scale(7.24066 5.88773)">
<stop offset="0.758" stop-color="#6D4C41" stop-opacity="0"/>
<stop offset="1" stop-color="#6D4C41"/>
</radialGradient>
<linearGradient id="paint1_linear_3328_24418" x1="10.6996" y1="13.3559" x2="10.6996" y2="20.5028" gradientUnits="userSpaceOnUse">
<stop stop-color="#651FFF"/>
<stop offset="1" stop-color="#530EEB"/>
</linearGradient>
<linearGradient id="paint2_linear_3328_24418" x1="13.4325" y1="25.0185" x2="13.4325" y2="12.673" gradientUnits="userSpaceOnUse">
<stop stop-color="#212121" stop-opacity="0.8"/>
<stop offset="1" stop-color="#212121" stop-opacity="0"/>
</linearGradient>
<linearGradient id="paint3_linear_3328_24418" x1="14.2545" y1="13.2723" x2="9.80119" y2="15.3986" gradientUnits="userSpaceOnUse">
<stop stop-color="#81D4FA"/>
<stop offset="1" stop-color="#0288D1"/>
</linearGradient>
<linearGradient id="paint4_linear_3328_24418" x1="9.9442" y1="20.9928" x2="9.9442" y2="13.798" gradientUnits="userSpaceOnUse">
<stop offset="0.1" stop-color="#212121" stop-opacity="0.4"/>
<stop offset="1" stop-color="#252525" stop-opacity="0"/>
</linearGradient>
<linearGradient id="paint5_linear_3328_24418" x1="15.9904" y1="18.0659" x2="18.4697" y2="21.505" gradientUnits="userSpaceOnUse">
<stop stop-color="#651FFF"/>
<stop offset="0.817" stop-color="#530EEB"/>
</linearGradient>
<linearGradient id="paint6_linear_3328_24418" x1="10.7408" y1="20.1506" x2="15.4816" y2="20.1506" gradientUnits="userSpaceOnUse">
<stop stop-color="#FFB300"/>
<stop offset="0.5" stop-color="#FFCA28"/>
</linearGradient>
<linearGradient id="paint7_linear_3328_24418" x1="15.4501" y1="16.3566" x2="13.6011" y2="13.2838" gradientUnits="userSpaceOnUse">
<stop stop-color="#FFB300"/>
<stop offset="0.5" stop-color="#FFCA28"/>
</linearGradient>
<radialGradient id="paint8_radial_3328_24418" cx="0" cy="0" r="1" gradientUnits="userSpaceOnUse" gradientTransform="translate(10.4317 7.08059) rotate(-94.9335) scale(7.41352 6.1396)">
<stop offset="0.701" stop-color="#6D4C41" stop-opacity="0"/>
<stop offset="0.991" stop-color="#6D4C41"/>
</radialGradient>
</defs>
</svg>
